<svg xmlns="http://www.w3.org/2000/svg" aria-hidden="true" style="width:0;height:0;position:absolute;overflow:hidden"><defs><symbol id="logo" viewBox="0 0 32 32"><path d="M31.979 15.8c-.647-12.05-6.457-13.811-11.14-13.812-1.184 0-2.295.113-3.233.2-.008-.547.014-1.134.1-1.783.001-.009-.002-.017-.003-.026l.003-.013c0-.202-.354-.366-.793-.366-.437 0-.791.164-.791.366-.12.653-.284 1.297-.49 1.926-6.18.04-14.32 1.09-15.562 13.098C-.831 24.105 7.113 32 16.05 32s16.399-7.443 15.929-16.2zM17.939 3.877l.677-.061c-.28.12-.551.245-.807.371-.018-.09-.031-.198-.048-.294l.178-.016zm-2.965.136c-.07.156-.138.306-.204.444a5.343 5.343 0 0 0-.484-.415l-.013-.009c.233-.009.467-.015.701-.02zM27.012 25.33c-2.69 3.044-6.603 4.954-10.962 4.957-4.27 0-8.512-2.025-11.347-5.417-2.298-2.75-3.378-6.048-3.043-9.29.63-6.085 3.143-8.991 6.367-10.368 3.125-.621 6.064.52 6.064.52S7.41 3.954 4.79 13.153c3.298-5.508 8.972-3.887 10.465-5.917 0 3.925 2.662 2.02 4.008 3.789 1.731 2.273 2.365 6.346 4.356 7.148-1.961-4.512 1.25-4.336-3.262-10.391 2.377 1.582 3.61-.02 6.855 1.407-2.777-4.864-7.22-3.458-7.22-3.458s1.809-1.765 3.726-1.716c3.238.81 6.217 3.537 6.665 11.883.182 3.409-1.014 6.758-3.37 9.431z"/></symbol><symbol id="tumblr" viewBox="0 0 32 32"><path d="M16.501 1.992v6.996h7.01v2.999h-6.979l-.01 8.704c0 1.618.084 2.657.255 3.117.267.727 1.237 1.657 3.037 1.657 1.397 0 3.281-.42 4.693-1.477v4.666c-1.177.561-2.273.788-3.227 1.015-.955.225-1.989.339-3.098.339-1.235 0-4.802-.034-6.266-3.763-.264-.671-.395-1.645-.395-2.921V11.992H7.494l.019-3.066c1.333 0 5.332-.81 5.332-6.934H16.5zm0-2h-3.656a2 2 0 0 0-2 2c0 4.578-2.551 4.934-3.332 4.934a2 2 0 0 0-2 1.99l-.019 3.066a2.002 2.002 0 0 0 2 2.01h2.027v9.332c0 1.543.175 2.739.534 3.653.901 2.295 3.043 5.032 8.127 5.032a15.48 15.48 0 0 0 3.558-.393l.221-.052c.933-.219 2.126-.493 3.407-1.104a1.996 1.996 0 0 0 1.14-1.806v-4.666a2.001 2.001 0 0 0-1.999-2c-.432 0-.852.14-1.198.398-1.191.892-2.714 1.078-3.494 1.078-.8 0-1.097-.29-1.163-.367-.034-.157-.129-.743-.129-2.407l.007-6.704h4.982a2 2 0 0 0 2-2V8.987a2 2 0 0 0-2-2h-5.01V1.991a2 2 0 0 0-2-2z"/></symbol><symbol id="instagram" viewBox="0 0 32 32"><path d="M15.969.125c4.312 0 4.844.031 6.531.094 1.656.063 2.813.344 3.844.75 1.063.406 1.937.938 2.813 1.813s1.406 1.75 1.813 2.813c.406 1.031.687 2.188.75 3.844.062 1.688.094 2.219.094 6.531s-.031 4.844-.094 6.531c-.063 1.656-.344 2.813-.75 3.844-.406 1.063-.938 1.937-1.813 2.813s-1.75 1.406-2.813 1.813c-1.031.406-2.187.687-3.844.75-1.687.062-2.219.094-6.531.094s-4.844-.031-6.531-.094c-1.656-.063-2.813-.344-3.844-.75-1.063-.406-1.938-.938-2.813-1.813s-1.406-1.75-1.813-2.813c-.406-1.031-.688-2.187-.75-3.844-.063-1.687-.094-2.219-.094-6.531s.031-4.844.094-6.531c.063-1.656.344-2.813.75-3.844.406-1.063.938-1.938 1.813-2.813S4.531 1.376 5.594.969C6.625.563 7.782.281 9.438.219c1.688-.063 2.219-.094 6.531-.094zm0 2.063c-4.5 0-5.031.031-6.781.094-1.625.063-2.531.375-3.125.594-1.531.625-2.563 1.656-3.188 3.188-.219.594-.531 1.5-.594 3.125-.063 1.75-.094 2.281-.094 6.781s.031 5.031.094 6.781c.063 1.625.375 2.531.594 3.125.625 1.531 1.656 2.563 3.188 3.188.594.219 1.5.531 3.125.594 1.75.063 2.281.094 6.781.094s5.031-.031 6.781-.094c1.625-.063 2.531-.375 3.125-.594 1.531-.625 2.563-1.656 3.188-3.188.219-.594.531-1.5.594-3.125.063-1.75.094-2.281.094-6.781s-.031-5.031-.094-6.781c-.063-1.625-.375-2.531-.594-3.125-.625-1.531-1.656-2.563-3.188-3.188-.594-.219-1.5-.531-3.125-.594-1.75-.063-2.281-.094-6.781-.094zm0 20.125c3.5 0 6.344-2.844 6.344-6.344s-2.844-6.344-6.344-6.344c-3.5 0-6.344 2.844-6.344 6.344s2.844 6.344 6.344 6.344zm0-14.469c4.5 0 8.125 3.625 8.125 8.125s-3.625 8.125-8.125 8.125-8.125-3.625-8.125-8.125 3.625-8.125 8.125-8.125zm10.375-.313c0 1.063-.875 1.875-1.937 1.875s-1.875-.813-1.875-1.875c0-1.063.813-1.938 1.875-1.938s1.937.875 1.937 1.938z"/></symbol><symbol id="youtube" viewBox="0 0 32 32"><path d="M29.398 5.928c-.867-.624-3.283-1.453-13.406-1.453-10.849 0-12.458.952-12.975 1.264C.268 7.39.007 14.702-.017 16.184c.033 1.958.349 8.473 3.032 10.084.516.31 2.116 1.257 12.977 1.257 10.13 0 12.543-.825 13.406-1.447 2.343-1.685 2.613-7.49 2.619-9.92-.006-1.954-.211-8.496-2.619-10.23zM28.23 24.455c-.349.251-2.35 1.069-12.239 1.069-9.56 0-11.566-.742-11.945-.971-.965-.579-1.984-3.653-2.063-8.376.079-4.713 1.111-8.153 2.066-8.726.38-.229 2.393-.978 11.943-.978 9.881 0 11.887.824 12.239 1.076.857.617 1.773 3.865 1.787 8.613-.013 4.823-.936 7.679-1.787 8.291zm-5.717-9.242-8.998-5.521a.996.996 0 0 0-1.38.352 1.004 1.004 0 0 0-.137.504v11.045a1.003 1.003 0 0 0 1 1c.182 0 .361-.05.517-.143l8.998-5.524a1 1 0 0 0 0-1.713zm-8.514 4.609v-7.503l6.063 3.751-6.063 3.752z"/></symbol><symbol id="twitter" viewBox="0 0 32 32"><path d="M21.387 4.959a5.82 5.82 0 0 1 4.195 1.762 11.77 11.77 0 0 0 3.647-1.353 5.628 5.628 0 0 1-2.525 3.083 11.743 11.743 0 0 0 3.301-.88 11.549 11.549 0 0 1-2.868 2.886c.01.239.017.479.017.719 0 7.366-5.782 15.863-16.354 15.863-3.245 0-6.268-.926-8.809-2.507.455.053.912.079 1.37.079 2.692 0 5.172-.89 7.139-2.387-2.517-.043-4.641-1.656-5.369-3.87a5.892 5.892 0 0 0 2.595-.094c-2.629-.511-4.611-2.764-4.611-5.467v-.071a5.86 5.86 0 0 0 2.604.698c-1.543-1.001-2.558-2.705-2.558-4.64 0-1.022.284-1.981.779-2.801 2.834 3.371 7.069 5.591 11.847 5.824a5.396 5.396 0 0 1-.149-1.27c0-3.079 2.573-5.575 5.749-5.575zm8.619 2.613zm-8.619-4.613c-3.927 0-7.18 2.869-7.681 6.576-3.213-.646-6.135-2.346-8.235-4.842a2.007 2.007 0 0 0-1.687-.707 2.005 2.005 0 0 0-1.556.962 7.428 7.428 0 0 0-.597 6.434 2.005 2.005 0 0 0-.515 1.341v.072c0 1.959.774 3.777 2.061 5.14-.074.343-.058.702.055 1.046a7.533 7.533 0 0 0 2.298 3.398 9.941 9.941 0 0 1-2.169.235c-.392 0-.772-.021-1.133-.065a1.997 1.997 0 0 0-2.123 1.324 2 2 0 0 0 .83 2.361 18.654 18.654 0 0 0 9.866 2.809c11.376 0 18.219-8.905 18.352-17.604a13.406 13.406 0 0 0 2.451-2.661 1.98 1.98 0 0 0 .405-1.203c0-.681-.341-1.282-.859-1.644a2 2 0 0 0-1.92-2.559c-.351 0-.695.092-.999.268a9.613 9.613 0 0 1-2.112.9 7.893 7.893 0 0 0-4.732-1.578z"/></symbol><symbol id="slider-arrow" viewBox="0 0 32 32"><path d="M4.666 21.348a.958.958 0 0 0 1.336 0L16 11.602l9.996 9.746a.958.958 0 0 0 1.336 0 .925.925 0 0 0 .276-.652.896.896 0 0 0-.276-.652L16.698 9.68a1 1 0 0 0-1.396 0L4.668 20.044a.925.925 0 0 0-.276.652.896.896 0 0 0 .276.652h-.002z"/></symbol><symbol id="video-arrow" viewBox="0 0 32 32"><path d="M7.381 29.181c.216.112.458.163.701.149s.477-.096.677-.234l17.333-12a1.33 1.33 0 0 0 .422-1.715 1.327 1.327 0 0 0-.422-.477l-17.333-12a1.327 1.327 0 0 0-2.092 1.095v24a1.333 1.333 0 0 0 .714 1.181zM9.333 6.545 22.99 16 9.333 25.455V6.546z"/></symbol><symbol id="location" viewBox="0 0 32 32"><path d="M25 13a9 9 0 1 0-18 0c0 3.692 2.954 8.504 9 14.268 6.046-5.764 9-10.576 9-14.268zm-9 17C8.666 23.334 5 17.666 5 13a11 11 0 0 1 22 0c0 4.666-3.666 10.334-11 17z"/><path d="M16 16a3.004 3.004 0 0 0 3-3 3.004 3.004 0 0 0-3-3 2.998 2.998 0 0 0-3 3 2.998 2.998 0 0 0 3 3zm0 2a4.997 4.997 0 0 1-5-5 4.997 4.997 0 0 1 5-5 4.997 4.997 0 0 1 5 5 4.997 4.997 0 0 1-5 5z"/></symbol><symbol id="email" viewBox="0 0 32 32"><path d="M28.445 5.333H3.556a1.776 1.776 0 0 0-1.778 1.778v17.778a1.776 1.776 0 0 0 1.778 1.778h24.889a1.776 1.776 0 0 0 1.778-1.778V7.111a1.776 1.776 0 0 0-1.778-1.778zm-1.369 19.556H5.032l6.222-6.436-1.28-1.236-6.418 6.64V8.461l11.049 10.996a1.779 1.779 0 0 0 2.506 0L28.444 8.186v15.556L21.902 17.2l-1.253 1.253 6.427 6.436zM4.72 7.111h22.284L15.857 18.196 4.719 7.111z"/></symbol><symbol id="menu-btn" viewBox="0 0 55 32"><path stroke="#f3f3f3" stroke-width="1.778" d="M0 1.778h55.111M0 16h55.111M0 30.222h55.111"/></symbol><symbol id="close-btn" viewBox="0 0 32 32"><path d="m16 14.115 6.6-6.6L24.485 9.4l-6.6 6.6 6.6 6.6-1.885 1.885-6.6-6.6-6.6 6.6L7.515 22.6l6.6-6.6-6.6-6.6L9.4 7.515l6.6 6.6z"/></symbol><symbol id="custom-select" viewBox="0 0 32 32"><path d="m16 18.667-5.333-5.333h10.667l-5.333 5.333z"/></symbol><symbol id="checkbox" viewBox="0 0 42 32"><path stroke-width=".64" d="m6.262 15.206-.221-.211-.221.208-3.085 2.925.243.234 11.408 10.88.221-.211L38.863 5.892l-.243-.23-3.043-2.902-.221.211-20.97 19.987-8.125-7.75z"/></symbol></defs></svg>